<?xml version="1.0" encoding="utf-8" ?>
<svg xmlns="http://www.w3.org/2000/svg" xmlns:xlink="http://www.w3.org/1999/xlink" width="983" height="983">
	<path fill="#FEFEFE" transform="matrix(0.959961 0 0 0.959961 6.10352e-05 0)" d="M-0 -0L1024 0L1024 1024L-0 1024L0 -0Z"/>
	<path fill="#D95D15" transform="matrix(0.959961 0 0 0.959961 6.10352e-05 0)" d="M235.669 628.25L236.423 628.289L226.818 638.568C216.094 651.766 210.5 670.127 212.416 687.005C213.9 700.085 221.283 710.852 231.418 718.917C243.375 728.432 258.132 733.321 273.042 735.802C291.122 738.811 309.721 738.629 327.979 737.971L406.957 731.557L498.812 721.278L454.74 755.589L444.242 762.767C400.81 791.472 350.931 811.734 298.137 800.828C264.136 793.804 232.325 775.226 213.161 745.734C200.841 726.776 194.361 702.091 199.195 679.654C203.953 657.571 216.771 640.528 235.669 628.25Z"/>
	<path fill="#D95D15" transform="matrix(0.959961 0 0 0.959961 6.10352e-05 0)" d="M785.099 626.067L791.141 629.939C808.439 641.489 821.821 658.661 825.816 679.434C830.292 702.709 824.236 726.065 811.011 745.5C791.64 773.965 757.928 794.294 724.25 800.376C669.339 810.291 616.232 789.436 571.785 758.345C556.224 747.834 542.612 734.91 529.376 721.694C553.071 722.515 576.719 723.991 600.25 727.01L640.677 732.55C661.902 735.777 682.981 738.775 704.443 739.869C720.572 740.691 736.462 740.654 752.316 737.153C770.415 733.157 792.707 723.526 802.891 707.231C809.824 696.138 812.852 681.548 809.789 668.715C805.642 651.341 797.312 638.866 785.099 626.067Z"/>
	<path fill="#D95D15" transform="matrix(0.959961 0 0 0.959961 6.10352e-05 0)" d="M512.489 734.125C518.393 738.18 523.345 744.336 528.623 749.225C537.27 757.236 546.464 764.758 556.016 771.664C596.244 800.751 645.122 823.807 695.75 823.374C705.805 823.288 715.604 821.825 725.504 820.239L725.586 978.519L508.875 978.454L297.154 978.492L297.13 818.262L317.646 821.409C379.229 825.459 434.046 798.154 481.242 760.905L512.489 734.125Z"/>
	<path fill="#D95D15" transform="matrix(0.959961 0 0 0.959961 6.10352e-05 0)" d="M500.197 45.708C568.454 42.4238 637.575 70.9877 681.381 124.067L694.96 141.749C695.805 142.935 698.963 148.42 699.68 148.701C700.36 148.968 703.42 148.56 704.25 148.548C709.652 148.467 715.156 148.321 720.55 148.62C743.99 149.923 767.466 155.425 788.771 165.319C833.477 186.081 869.127 223.899 885.977 270.415C901.949 314.509 900.383 363.456 880.484 406C861.142 447.355 826.112 478.964 785.266 498.345C773.45 503.951 761.251 508.156 748.984 512.599C744.327 520.664 740.577 529.838 737.306 538.553C731.771 553.299 727.693 568.691 726.375 584.422C725.013 600.687 726.084 617.662 726.038 634.022L726.075 705.943L692.615 695.102C651.194 683.418 609.381 676.341 566.529 672.832C552.556 671.688 538.788 670.545 524.75 670.476L484.25 670.558C437.889 672.108 390.503 678.138 345.439 689.223C329.048 693.255 312.133 697.764 296.965 705.289L297.027 636.5C297.014 619.05 298.007 600.897 296.52 583.525C294.811 563.56 289.225 544.439 281.535 526C280.588 523.729 276.363 512.847 275.287 512.035C274.735 511.618 273.066 511.336 272.345 511.11L263.214 508.26L251.953 504.092C218.945 490.803 189.247 470.522 166.74 442.797C136.244 405.229 123.624 358.347 128.739 310.516C133.781 263.36 159.567 217.766 196.543 188.158C230.913 160.637 277.778 146.381 321.62 151.369L342.525 122.711C373.35 87.6187 413.73 61.7075 459.51 51.169C472.946 48.076 486.469 46.6119 500.197 45.708Z"/>
	<path fill="#FEFEFE" transform="matrix(0.959961 0 0 0.959961 6.10352e-05 0)" d="M501.809 83.7132C564.694 79.5232 626.913 110.558 662.494 162.25C667.982 170.224 672.48 178.527 676.844 187.151C677.046 187.55 678.366 190.269 678.456 190.304C679.461 190.703 686.956 188.43 688.5 188.148C694.255 187.095 700.311 186.635 706.164 186.531C725.576 186.185 744.511 189.38 762.715 196.205C799.198 209.884 829.84 239.347 845.778 274.722C861.005 308.517 861.345 347.652 848.33 382.14C838.698 407.665 820.002 430.672 797.227 445.728C793.55 448.159 789.885 450.709 785.86 452.531L799.357 439.784C821.868 415.33 834.075 383.858 832.409 350.5C830.822 318.753 815.622 289.476 792.199 268.322C769.497 247.272 738.266 238.326 707.833 239.455C675.268 240.662 648.12 255.534 626.271 279.063C632.342 243.152 627.438 209.041 606.584 178.506C587.087 149.958 556.203 129.447 522.161 123.136C486.711 116.564 449.29 123.282 419.5 144.01C393.155 162.341 373.408 189.622 367.753 221.468C361.481 210.199 354.343 202.348 343.274 195.673C349.134 179.974 359.879 163.089 370.791 150.393C396.097 120.954 428.078 98.7324 466.017 89.0942C477.724 86.1202 489.786 84.6039 501.809 83.7132Z"/>
	<path fill="#FEFEFE" transform="matrix(0.959961 0 0 0.959961 6.10352e-05 0)" d="M492.264 454.716C499.241 454.191 506.519 454.468 513.536 454.478C566.584 454.552 619.624 465.212 669.4 483.235C684.163 488.581 699.039 494.317 713.166 501.182C701.603 525.546 692.656 552.71 690.706 579.75C689.808 592.192 690.22 604.95 690.155 617.438L689.978 677.309C658.384 669.463 626.865 662.962 594.497 659.07L533.777 654.534C487.331 653.514 441.624 655.988 395.702 663.078C375.167 666.249 354.454 670.077 334.396 675.544L334.087 610.577C334.059 596.068 334.63 581.363 332.337 566.986C328.612 543.631 320.155 521.712 310.077 500.451C311.496 499.081 314.329 498.282 316.163 497.484L329.329 491.804C363.963 477.174 400.88 466.494 437.982 460.434C455.946 457.5 474.112 455.894 492.264 454.716Z"/>
</svg>
